<?xml version="1.0" encoding="UTF-8" standalone="no"?>
<svg class="nav-icon" viewBox="183.60000000000002 -799.625 626.4 605.125">
    <g transform="scale(1, -1)">
        <path
            d="M556 356L556 356Q563 358 575 359.50Q587 361 594 362L594 362Q657 378 678 425L678 425Q705 479 691 541L691 541Q688 553 682 565L682 565Q677 573 666 587L666 587Q662 591 662 597L662 597Q672 635 659 669L659 669Q659 671 656.50 673Q654 675 650 675L650 675Q640 675 629 671L629 671Q622 669 609.50 662.50Q597 656 578 644L578 644Q575 641 569 641L569 641Q495 659 422 641L422 641Q416 641 412 644L412 644L405 648Q386 659 377 663L377 663Q362 670 347 672L347 672Q335 674 332.50 672.50Q330 671 328 659L328 659Q319 627 328 594L328 594L328 588Q308 565 301 535L301 535Q295 508 300 478L300 478Q302 472 303.50 461Q305 450 306 444L306 444Q318 411 341 391.50Q364 372 400 362L400 362Q425 356 441 353L441 353Q428 341 422 316L422 316Q422 313 419 312L419 312L419 312Q393 302 371 307L371 307Q347 313 331 337L331 337Q315 365 287 369L287 369L272 369Q267 369 266.50 365.50Q266 362 269 359L269 359L275 353Q300 338 309 309L309 309Q319 289 335 278.50Q351 268 375 266L375 266Q403 266 419 269L419 269L419 209Q419 202 412.50 198.50Q406 195 397 197L397 197Q359 211 322 234L322 234Q250 284 216 352L216 352Q180 421 184 506L184 506Q187 577 221 637.50Q255 698 311.50 739Q368 780 437 794L437 794Q517 809 594 784L594 784Q668 759 723 701.50Q778 644 800 566L800 566Q820 489 800 412L800 412Q780 337 727 279.50Q674 222 600 197L600 197Q588 192 581.50 197Q575 202 575 216L575 216L575 291Q578 311 574 326L574 326Q570 343 556 356Z" />
    </g>
</svg>